<?xml version="1.0" standalone="no"?>
<!DOCTYPE svg PUBLIC "-//W3C//DTD SVG 20010904//EN"
 "http://www.w3.org/TR/2001/REC-SVG-20010904/DTD/svg10.dtd">
<svg version="1.0" xmlns="http://www.w3.org/2000/svg"
 width="1920.000000pt" height="1920.000000pt" viewBox="0 0 1920.000000 1920.000000"
 preserveAspectRatio="xMidYMid meet">

<g transform="translate(0.000000,1920.000000) scale(0.100000,-0.100000)"
fill="#000000" stroke="none">
<path d="M8850 13324 c-19 -2 -78 -9 -130 -15 -312 -35 -636 -145 -900 -303
l-111 -67 -57 10 c-240 41 -519 8 -739 -87 -145 -62 -254 -140 -388 -276 -186
-188 -274 -322 -412 -623 -153 -334 -212 -416 -476 -665 -399 -376 -533 -527
-621 -698 -161 -312 -133 -652 84 -1005 102 -167 242 -335 510 -610 189 -195
265 -285 440 -525 299 -409 366 -468 529 -458 95 5 181 49 257 131 72 76 114
153 158 287 l33 101 28 -43 c68 -104 197 -240 278 -292 26 -18 27 -20 27 -120
0 -55 4 -118 9 -139 l9 -37 -52 7 c-81 13 -314 9 -391 -6 -323 -63 -681 -273
-961 -563 -147 -153 -230 -288 -268 -435 -18 -67 -21 -220 -7 -271 9 -28 7
-33 -12 -37 -767 -175 -1337 -354 -1895 -597 -89 -39 -161 -72 -159 -75 2 -2
152 23 333 56 675 122 1461 234 1874 266 85 7 85 7 125 -25 107 -85 253 -152
438 -200 199 -52 316 -65 582 -64 250 0 371 12 575 56 317 67 627 221 763 379
l42 49 190 0 190 -1 50 -86 c131 -224 329 -379 570 -445 115 -31 355 -31 470
0 241 66 439 221 570 445 l50 86 190 1 190 0 42 -49 c136 -158 446 -312 763
-379 204 -44 325 -56 575 -56 266 -1 383 12 582 64 185 48 331 115 438 200 40
32 40 32 125 25 413 -32 1199 -144 1874 -266 181 -33 331 -58 333 -56 2 3 -70
36 -159 75 -558 243 -1128 422 -1895 597 -19 4 -21 9 -12 37 14 51 11 204 -7
271 -38 147 -121 282 -268 435 -280 290 -638 500 -961 563 -77 15 -310 19
-391 6 l-52 -7 9 37 c5 21 9 84 9 139 0 100 1 102 28 120 80 52 209 188 277
292 l28 43 33 -101 c44 -134 86 -211 158 -287 76 -82 162 -126 257 -131 163
-10 230 49 529 458 175 240 251 330 440 525 268 275 408 443 510 610 217 353
245 693 84 1005 -88 171 -222 322 -621 698 -264 249 -323 331 -476 665 -138
301 -226 435 -412 623 -134 136 -243 214 -388 276 -220 95 -499 128 -739 87
l-57 -10 -111 67 c-261 157 -561 258 -900 305 -122 17 -516 18 -635 1 -49 -7
-125 -20 -168 -28 -62 -12 -88 -13 -130 -4 -128 27 -267 41 -457 45 -113 2
-221 1 -240 -1z m395 -304 c88 -6 204 -16 258 -23 80 -11 117 -11 190 0 51 7
176 17 279 24 535 33 1053 -75 1419 -297 50 -30 65 -34 126 -34 201 0 451 -36
603 -86 307 -102 544 -323 662 -617 57 -144 164 -349 242 -466 163 -243 260
-351 667 -746 203 -196 271 -301 305 -465 42 -210 -27 -409 -254 -730 -116
-162 -182 -239 -387 -450 -211 -217 -472 -523 -570 -670 -109 -162 -156 -193
-215 -144 -61 52 -115 221 -164 514 -78 476 -87 715 -56 1505 15 400 -7 743
-64 969 -78 304 -258 516 -440 516 -65 0 -171 -36 -213 -73 -62 -54 -74 -114
-36 -173 24 -37 65 -47 157 -40 l84 7 31 -32 c45 -45 118 -173 142 -249 45
-145 49 -209 60 -835 14 -808 8 -1428 -14 -1512 -34 -128 -106 -255 -207 -366
-29 -32 -58 -57 -65 -57 -7 0 -16 12 -20 28 -11 47 -55 111 -86 128 -43 22
-84 10 -135 -42 -56 -55 -57 -83 -9 -219 32 -91 35 -110 35 -210 -1 -105 -15
-214 -39 -300 -10 -34 -19 -43 -63 -64 -152 -71 -377 -263 -493 -420 l-59 -80
-76 -8 c-121 -13 -345 -7 -455 11 -259 45 -517 166 -713 335 l-72 63 -73 -63
c-195 -169 -453 -290 -712 -335 -110 -18 -334 -24 -455 -11 l-76 8 -59 80
c-116 157 -341 349 -493 420 -44 21 -53 30 -63 64 -24 86 -38 195 -39 300 0
100 3 119 35 210 48 136 47 164 -9 219 -51 52 -92 64 -135 42 -31 -17 -75 -81
-86 -128 -4 -16 -13 -28 -20 -28 -34 0 -176 186 -226 296 -61 135 -62 142 -66
699 -5 700 11 1532 32 1645 30 155 85 279 169 376 29 34 37 38 72 35 21 -2 67
-4 102 -5 60 -1 65 1 93 32 60 67 30 156 -70 206 -154 77 -278 52 -412 -83
-206 -210 -288 -641 -259 -1373 21 -542 23 -719 11 -893 -30 -435 -103 -861
-177 -1025 -27 -61 -72 -110 -101 -110 -35 0 -85 46 -144 133 -134 198 -373
480 -619 732 -197 201 -306 333 -422 509 -188 288 -241 475 -189 679 45 176
148 308 447 577 316 286 586 653 724 984 23 55 57 131 77 170 199 395 564 592
1133 613 l165 6 70 43 c240 148 619 256 990 283 174 12 251 12 430 1z m-1930
-5381 c343 -59 730 -337 869 -624 63 -132 71 -239 26 -360 -34 -88 -139 -191
-252 -245 -46 -22 -96 -42 -111 -43 -25 -2 -30 4 -62 82 -48 116 -108 214
-171 280 -30 30 -56 53 -58 50 -2 -2 0 -27 5 -54 16 -84 13 -281 -6 -365 -10
-41 -19 -77 -20 -78 -14 -16 -239 -51 -394 -62 -163 -12 -448 2 -467 23 -31
32 -79 331 -72 439 3 37 4 68 2 68 -7 0 -82 -117 -107 -165 -33 -66 -63 -158
-72 -223 -4 -29 -11 -52 -17 -52 -30 0 -202 66 -258 100 -189 111 -244 258
-173 462 47 135 120 244 253 378 307 308 711 453 1085 389z m4967 -10 c167
-33 325 -101 488 -208 119 -78 300 -261 369 -374 106 -172 141 -341 93 -449
-28 -64 -103 -142 -182 -188 -56 -34 -228 -100 -258 -100 -6 0 -13 23 -17 52
-9 65 -39 157 -72 223 -25 48 -100 165 -107 165 -2 0 -1 -31 2 -68 7 -108 -41
-407 -72 -439 -6 -7 -74 -17 -165 -24 -208 -16 -492 5 -659 51 -43 11 -43 11
-68 139 -9 50 -6 257 5 316 5 27 8 51 6 53 -2 2 -22 -13 -44 -33 -58 -53 -124
-156 -176 -276 -42 -97 -47 -104 -72 -103 -16 1 -58 16 -95 33 -193 92 -298
235 -298 406 0 261 305 603 680 761 217 91 407 110 642 63z"/>
<path d="M10990 10750 c-133 -28 -261 -134 -328 -273 -36 -74 -68 -174 -59
-183 1 -2 32 5 68 16 210 64 530 67 769 7 50 -13 92 -22 94 -20 2 2 -3 29 -11
60 -44 171 -177 327 -322 378 -56 19 -155 26 -211 15z"/>
<path d="M7987 10726 c-112 -47 -197 -125 -256 -235 -31 -58 -68 -177 -59
-187 3 -3 41 4 84 15 128 32 213 41 376 41 151 0 277 -15 388 -45 80 -21 79
-22 69 28 -20 89 -86 206 -157 276 -96 96 -158 124 -287 128 -88 3 -107 1
-158 -21z"/>
<path d="M9435 9294 c-410 -43 -645 -138 -720 -289 -39 -78 -19 -269 41 -386
35 -70 105 -143 167 -174 63 -31 136 -34 160 -7 20 22 21 35 5 78 -15 42 1 64
48 64 66 0 134 -91 119 -159 -11 -52 -63 -86 -163 -107 -85 -18 -112 -36 -112
-75 0 -24 12 -43 58 -87 49 -49 91 -74 302 -180 135 -67 252 -123 260 -123 8
0 125 56 260 123 211 106 253 131 303 180 45 44 57 63 57 87 0 39 -27 57 -112
75 -100 21 -152 55 -163 107 -15 68 53 159 119 159 47 0 63 -22 48 -64 -7 -18
-12 -39 -12 -48 0 -27 35 -48 81 -48 92 0 207 87 263 199 60 117 80 308 41
386 -64 130 -261 224 -565 270 -103 15 -405 27 -485 19z m395 -149 c171 -28
345 -99 430 -175 32 -29 33 -31 10 -25 -14 4 -73 20 -131 35 -170 46 -319 64
-539 64 -219 0 -364 -17 -544 -64 -61 -16 -120 -31 -131 -35 -34 -11 45 53
110 90 77 43 220 91 326 109 115 19 352 20 469 1z"/>
<path d="M8097 8120 c-49 -39 -42 -116 14 -145 40 -21 63 -19 98 11 89 74 -21
206 -112 134z"/>
<path d="M10985 8115 c-38 -37 -35 -95 6 -129 35 -30 58 -32 98 -11 34 17 55
62 45 99 -15 63 -103 88 -149 41z"/>
<path d="M8519 7765 c-77 -42 -42 -165 46 -165 37 0 62 16 80 51 13 25 14 37
5 65 -20 60 -74 80 -131 49z"/>
<path d="M10583 7765 c-12 -8 -27 -31 -33 -49 -35 -108 122 -166 166 -61 34
81 -62 160 -133 110z"/>
<path d="M14810 9404 c153 -191 248 -458 281 -794 l13 -125 37 80 c44 93 77
215 85 318 22 251 -115 457 -374 567 -119 50 -119 50 -42 -46z"/>
<path d="M14505 9231 c-80 -21 -141 -78 -182 -170 -13 -30 -44 -123 -68 -207
-69 -237 -142 -401 -248 -558 -153 -228 -382 -434 -613 -553 -81 -42 -94 -61
-94 -140 0 -59 40 -99 107 -109 41 -6 55 -2 122 30 109 54 281 172 388 265
185 162 357 389 468 617 58 119 135 336 156 442 7 34 16 62 20 62 10 0 36
-158 44 -260 7 -105 -8 -290 -36 -418 -93 -430 -351 -843 -749 -1199 -126
-112 -140 -133 -140 -215 0 -27 8 -47 29 -70 27 -31 34 -33 108 -36 l78 -4
110 95 c378 324 680 754 811 1154 65 198 78 284 78 518 1 235 -9 309 -70 497
-30 93 -42 115 -86 163 -76 83 -156 116 -233 96z"/>
<path d="M15414 8937 c-1 -108 -6 -150 -27 -229 -35 -132 -101 -285 -181 -419
-37 -61 -66 -113 -64 -115 7 -7 152 84 206 129 222 185 267 413 132 665 -64
119 -65 119 -66 -31z"/>
</g>
</svg>
